<svg width="70" height="70" viewBox="0 0 70 70" fill="none" xmlns="http://www.w3.org/2000/svg">
<g clip-path="url(#clip0_2_2)">
<path d="M22.8603 37.0908L23.2145 37.865C24.7299 41 27.1172 43.6315 30.0892 45.4444L30.641 45.7677C30.8975 45.9119 30.8975 46.2811 30.641 46.4254C30.4549 46.53 30.271 46.6379 30.0892 46.7488C27.1172 48.5615 24.7299 51.1931 23.2145 54.3281L22.8603 55.1021C22.7216 55.4144 22.2785 55.4144 22.1397 55.1021L21.7855 54.3281C20.2701 51.1931 17.8828 48.5615 14.9108 46.7488C14.7291 46.6379 14.5451 46.53 14.359 46.4254C14.1026 46.2811 14.1026 45.9119 14.359 45.7677L14.9108 45.4444C17.8828 43.6315 20.2701 41 21.7855 37.865L22.1397 37.0908C22.2785 36.7788 22.7216 36.7788 22.8603 37.0908ZM41.4123 15.6873C41.614 16.1411 41.8158 16.5947 42.0321 17.0419C44.684 22.5281 48.8617 27.1334 54.0627 30.3057C54.3808 30.4997 54.7027 30.6884 55.0286 30.8717C55.4773 31.124 55.4773 31.7702 55.0286 32.0225C54.7027 32.2058 54.3808 32.3944 54.0627 32.5886C48.8617 35.7606 44.684 40.3661 42.0321 45.8523C41.8158 46.2994 41.614 46.7529 41.4123 47.2069C41.1694 47.7531 40.394 47.7531 40.1511 47.2069C39.9494 46.7529 39.7475 46.2994 39.5313 45.8523C36.8794 40.3661 32.7017 35.7606 27.5007 32.5886C27.1825 32.3944 26.8606 32.2058 26.5349 32.0225C26.0862 31.7702 26.0862 31.124 26.5349 30.8717C26.8606 30.6884 27.1825 30.4997 27.5007 30.3057C32.7017 27.1334 36.8794 22.5281 39.5313 17.0419C39.7471 16.5954 39.9494 16.1413 40.1511 15.6873C40.394 15.1409 41.1694 15.1409 41.4123 15.6873Z" fill="#E3CB20"/>
</g>
<defs>
<clipPath id="clip0_2_2">
<rect width="50" height="50" fill="white" transform="translate(10 10)"/>
</clipPath>
</defs>
</svg>
